PathFileType	4	(X/Y/Z)	/Users/mathieubourgeois/Desktop/Analyse/Traitement/Sujet_07/Data/Transformed_Sujet_07_velo_100.trc
DataRate	CameraRate	NumFrames	NumMarkers	Units	OrigDataRate	OrigDataStartFrame	OrigNumFrames
120.000000	120.000000	4	36	mm	120.000000	1398	1864
Frame#	Time	RKNE			RKNI			LKNI			LKNE			LANI			LANE			LTOE			LHEE			RHEE			RTOE			RANE			RANI			RFWT			LFWT			RBWT			LBWT			T10			C7			RSHO			LSHO			LWRA			LWRB			RWRA			RWRB			RCAR			LCAR			LHUM			LRAD			RRAD			RHUM			STRN			RFHD			LFHD			RBHD			LBHD			CLAV			
		X1	Y1	Z1	X2	Y2	Z2	X3	Y3	Z3	X4	Y4	Z4	X5	Y5	Z5	X6	Y6	Z6	X7	Y7	Z7	X8	Y8	Z8	X9	Y9	Z9	X10	Y10	Z10	X11	Y11	Z11	X12	Y12	Z12	X13	Y13	Z13	X14	Y14	Z14	X15	Y15	Z15	X16	Y16	Z16	X17	Y17	Z17	X18	Y18	Z18	X19	Y19	Z19	X20	Y20	Z20	X21	Y21	Z21	X22	Y22	Z22	X23	Y23	Z23	X24	Y24	Z24	X25	Y25	Z25	X26	Y26	Z26	X27	Y27	Z27	X28	Y28	Z28	X29	Y29	Z29	X30	Y30	Z30	X31	Y31	Z31	X32	Y32	Z32	X33	Y33	Z33	X34	Y34	Z34	X35	Y35	Z35	X36	Y36	Z36	

1399	11.65	-78.14179992675784	841.1165161132812	240.0803985595703	-79.53855133056642	782.2778930664062	135.8117980957031	-107.5758514404297	742.9566650390625	-22.35723304748541	-85.52426147460936	799.1282348632812	-125.9326553344727	-119.7656860351562	359.6157836914062	-48.15090179443363	-125.7997207641601	349.8446960449219	-138.654037475586	72.89138031005861	284.8683776855469	-87.15540313720703	-189.6196136474609	334.6989135742188	-107.7369461059571	-439.1993103027344	539.4502563476562	167.318130493164	-255.3461608886719	345.7239685058594	178.6082153320312	-381.487548828125	521.2899169921875	208.5979766845702	-354.4193725585938	520.8036499023438	122.9464035034179	-282.8193969726562	1214.6171875	158.9207763671874	-287.8669128417969	1213.818603515625	-56.46914672851573	-442.2561950683594	1296.174682617188	111.9965591430663	-443.888671875	1293.087158203125	-1.565673112869396	-189.6849365234375	1509.013549804688	45.7692413330077	60.84316635131835	1472.770385742188	66.81167602539055	64.0705871582031	1418.270629882812	210.5939788818359	93.22718811035158	1446.486083984375	-58.17075729370124	314.3568725585938	931.8906860351562	-106.5502319335938	274.7633972167969	887.9446411132812	-155.3080139160157	319.3007507324218	939.4683837890625	253.6761932373047	279.5470886230468	898.49072265625	302.5253601074219	367.8795166015624	922.6754150390625	343.4834594726562	370.5581665039062	915.3496704101562	-193.9141845703125	92.55767059326173	1122.7119140625	-143.0354003906251	154.6248626708985	1139.171875	-161.5826873779297	106.4461288452148	1112.51171875	298.5541687011718	63.37964248657224	1085.859252929688	251.370864868164	-131.9407348632812	1275.777709960938	47.28443145751944	251.7967224121093	1319.603637695312	163.0248718261718	261.6571960449219	1303.169799804688	31.75096893310542	212.9381713867187	1465.99072265625	158.3783264160156	221.2217102050781	1464.745727539062	14.99757194519037	29.85043144226074	1339.386962890625	69.1790237426757	
1400	11.65833333333333	-70.2778015136719	851.5314331054688	241.7227783203124	-73.17871093750001	792.8395385742188	136.9564514160156	-121.7002944946289	730.7194213867188	-24.68873596191412	-96.37726593017577	786.840087890625	-126.1997909545899	-125.8042221069336	347.1084594726562	-48.51490020751957	-132.0240173339843	337.365234375	-139.0040130615235	65.50875091552736	270.0668640136719	-88.41625213623047	-195.6365661621094	322.7351379394531	-107.9606857299805	-433.6363220214844	553.415771484375	166.8829040527343	-248.8150482177735	360.6516418457031	179.2790527343749	-375.7201843261719	535.2738037109375	208.3868408203124	-348.4005126953125	534.6099853515625	122.7351455688476	-282.8810424804688	1214.9326171875	159.1974792480468	-286.8836364746094	1213.007934570312	-56.32733917236339	-442.3451843261719	1296.056396484375	111.2269210815428	-443.16796875	1292.44189453125	-2.337668895721569	-189.6970062255859	1508.992553710938	46.17637252807606	60.78686523437499	1472.84765625	68.52657318115227	63.67361068725583	1418.316040039062	212.3499908447265	93.56851959228516	1446.48583984375	-56.61217498779304	314.4179992675781	931.8429565429688	-106.3832626342774	274.5178833007812	887.6909790039062	-155.5072937011719	319.2314453124999	939.4885864257812	253.7967834472656	279.5101318359374	898.4617919921875	302.6282653808594	367.8581848144531	922.6405639648438	343.5635986328125	370.5740356445312	915.4154052734375	-193.8271484375	92.68762207031251	1122.762573242188	-142.2752075195313	154.765869140625	1139.227172851562	-160.7107391357422	106.2009887695312	1112.293579101562	299.1023559570312	63.269172668457	1085.794189453125	251.7583312988281	-131.8014678955078	1275.76611328125	47.95934295654288	251.7423706054687	1319.338134765625	164.6000976562499	261.5482788085938	1303.147216796875	33.24475097656246	213.0356903076172	1465.784057617188	160.1591644287109	221.2536163330078	1464.7841796875	16.76522445678705	29.73538780212402	1339.469848632812	70.81597137451163	
1401	11.66666666666667	-62.81256103515628	862.1807250976562	243.3153228759765	-64.91023254394533	803.7236328125	138.0758056640624	-133.1188049316406	719.2570190429688	-24.690902709961	-107.746353149414	775.4853515625	-126.6133499145508	-132.8675842285156	335.5677490234375	-48.79115676879886	-139.4390411376953	325.8634033203125	-139.2832336425782	57.82250595092775	256.1122741699219	-89.15209960937501	-202.7988739013672	311.7605895996094	-107.8873672485352	-427.5456848144531	566.1680908203125	166.306671142578	-242.1300506591797	375.0855102539062	178.8038482666015	-369.4457397460938	548.3621215820312	208.0221252441405	-341.7425842285156	547.5921630859375	122.4665985107421	-282.8964538574219	1215.383544921875	159.4618682861327	-285.80615234375	1212.283813476562	-56.19363021850597	-442.2518310546875	1296.069213867188	110.3958511352538	-442.3440551757812	1291.886962890625	-3.265731334686413	-189.5078582763672	1509.032592773438	46.47068786621082	60.94205856323241	1472.961303710938	70.33521270751946	63.46566009521482	1418.348754882812	214.1400604248046	93.95606994628906	1446.47900390625	-54.93634796142585	314.5093994140625	931.8058471679688	-106.2047500610352	274.5426635742188	887.7077026367188	-155.3790283203125	319.2062377929687	939.4923706054688	253.9555511474609	279.5180358886718	898.392578125	302.7518005371094	367.8938903808593	922.554931640625	343.658935546875	370.5945129394531	915.48291015625	-193.7298278808594	92.95827484130861	1122.917236328125	-141.6036834716797	155.0010070800782	1139.3330078125	-159.9393005371094	105.9966278076171	1112.1201171875	299.7603454589843	63.23949050903317	1085.764526367188	252.2245483398437	-131.443115234375	1275.791259765625	48.56286239624014	251.7876281738281	1319.13623046875	166.1644744873046	261.5452575683594	1303.113037109375	34.74578857421871	213.3619842529297	1465.549438476562	161.9108428955078	221.441162109375	1464.833618164062	18.5379962921142	29.84175300598144	1339.55029296875	72.51741790771476	
1402	11.675	-55.87526321411136	872.7959594726562	244.8722686767578	-56.85550689697267	814.6690063476562	139.1821136474609	-144.5478820800781	708.7608642578125	-24.46208763122565	-119.4249114990234	764.9818115234375	-127.0165557861329	-140.7982635498047	325.1280212402344	-49.09726333618168	-147.855728149414	315.3963928222656	-139.5543823242188	48.97756195068361	242.6857299804688	-90.07964324951173	-210.8956756591797	301.9382019042969	-107.7030868530274	-420.9920959472656	577.6696166992188	165.6177368164062	-231.4560089111328	389.7723083496094	180.7834320068359	-362.6120300292969	560.4517822265625	207.6489257812499	-334.6051635742188	559.6795043945312	122.0636596679687	-282.8421325683594	1215.965698242188	159.7678680419921	-284.8090209960938	1211.493408203125	-55.94851303100597	-442.0469970703125	1296.24072265625	109.4148712158202	-441.4268493652344	1291.538330078125	-4.24366903305067	-189.1598815917969	1509.1162109375	46.70015335082996	61.21319961547851	1473.090209960938	72.10334014892571	63.39624404907224	1418.441650390625	215.990493774414	94.57310485839844	1446.617431640625	-53.30235671997077	314.6025085449219	931.7278442382812	-106.0377044677735	274.5823974609375	887.7438354492188	-155.2496795654297	319.2302246093749	939.4917602539062	254.0968170166015	279.5846557617187	898.33447265625	302.8775329589844	368.0066833496093	922.4398803710938	343.7300415039062	370.6274719238281	915.509765625	-193.6494293212891	93.22933959960939	1123.097778320312	-140.8690948486329	155.3455505371094	1139.512573242188	-159.2321472167969	105.9340896606445	1111.913818359375	300.4447021484374	63.30245590209958	1085.7822265625	252.6941528320312	-130.9661560058594	1275.8603515625	49.13897705078116	252.0307922363281	1318.899780273438	167.726089477539	261.7235107421875	1303.102294921875	36.31689071655269	213.6074981689453	1465.4248046875	163.7721862792968	221.8102722167969	1464.920288085938	20.34933280944818	30.06102180480956	1339.680786132812	74.19333648681632	
